<?xml version="1.0" encoding="UTF-8" standalone="no"?>
<svg
   t="1670036257069"
   class="icon"
   viewBox="0 0 885.27644 886.1626"
   version="1.1"
   p-id="6624"
   width="16"
   height="16 "
   id="svg78"
   sodipodi:docname="pokeball_step_1.svg"
   inkscape:export-filename="basketball2.svg"
   inkscape:export-xdpi="7.6799998"
   inkscape:export-ydpi="7.6799998"
   inkscape:version="1.2.1 (9c6d41e, 2022-07-14)"
   xmlns:inkscape="http://www.inkscape.org/namespaces/inkscape"
   xmlns:sodipodi="http://sodipodi.sourceforge.net/DTD/sodipodi-0.dtd"
   xmlns="http://www.w3.org/2000/svg"
   xmlns:svg="http://www.w3.org/2000/svg">
  <defs
     id="defs82" />
  <sodipodi:namedview
     id="namedview80"
     pagecolor="#ffffff"
     bordercolor="#000000"
     borderopacity="0.25"
     inkscape:showpageshadow="2"
     inkscape:pageopacity="0.0"
     inkscape:pagecheckerboard="0"
     inkscape:deskcolor="#d1d1d1"
     showgrid="false"
     inkscape:zoom="1.5115134"
     inkscape:rotation="-45"
     inkscape:cx="65.727833"
     inkscape:cy="129.3505"
     inkscape:window-width="1512"
     inkscape:window-height="846"
     inkscape:window-x="0"
     inkscape:window-y="38"
     inkscape:window-maximized="1"
     inkscape:current-layer="svg78" />
  <path
     d="M 885.65057,443.07928 C 885.65058,198.76405 686.89051,0.00398407 442.57128,2.074707e-6 198.25604,-1.3925293e-5 -0.51201996,198.76805 -0.51200496,443.08328 c -7e-6,244.31525 198.76006496,443.0753 443.07929496,443.0793 244.31523,10e-6 443.08329,-198.76806 443.08328,-443.0833 z"
     fill="#696065"
     p-id="6625"
     id="path68" />
  <path
     d="m 400.34075,632.16477 c -87.96929,0.004 -163.80943,52.55168 -198.00175,127.88494 61.54778,46.75651 137.03669,76.05965 219.05914,80.3821 V 632.16476 Z m 66.21344,-10e-6 v 208.05152 c 80.92489,-4.8373 155.40004,-33.94886 216.23739,-80.17056 C 648.60324,684.71645 572.75512,632.16079 484.78982,632.16079 Z"
     fill="#e25532"
     p-id="6626"
     data-spm-anchor-id="a313x.7781069.0.i19"
     class="selected"
     id="path70" />
  <path
     d="m 466.55418,587.00872 h 18.23965 c 101.57118,0.004 189.81985,58.0076 233.47124,142.60835 70.18863,-67.55446 115.73184,-160.50474 121.55095,-263.95576 l -373.25784,-0.004 z m 18.23964,-287.85885 -18.23563,-0.004 -1e-5,121.35541 373.25784,0.004 C 833.9969,317.05423 788.4497,224.09998 718.26107,156.54552 674.61368,241.14227 586.36501,299.14588 484.79383,299.14987 Z"
     fill="#e25532"
     p-id="6627"
     data-spm-anchor-id="a313x.7781069.0.i18"
     class="selected"
     id="path72" />
  <path
     d="m 484.79782,253.9978 c 87.9653,0 163.81341,-52.55567 197.99775,-127.88894 C 621.95823,79.887174 547.48306,50.775604 466.55819,45.938314 V 253.98981 Z m -63.39169,-0.004 -0.004,-208.271016 c -82.02245,4.32243 -157.51138,33.62557 -219.06313,80.386066 34.19231,75.33326 110.04442,127.88494 198.00573,127.88096 z"
     fill="#e25532"
     p-id="6628"
     data-spm-anchor-id="a313x.7781069.0.i16"
     class=""
     id="path74" />
  <path
     d="m 421.39814,299.14987 -21.06138,-0.004 C 298.75758,299.14987 210.50892,241.14624 166.86951,156.5415 96.680853,224.09597 51.133683,317.05023 45.314563,420.50125 l 376.091547,0.004 z m -21.0534,287.86284 21.06139,-0.004 V 465.65332 l -376.079597,0.008 C 51.145643,569.10436 96.688853,662.0626 166.8775,729.61708 210.52089,645.01632 298.76558,587.00872 400.34474,587.01271 Z"
     fill="#e25532"
     p-id="6629"
     data-spm-anchor-id="a313x.7781069.0.i15"
     class="selected"
     id="path76" />
</svg>
