<?xml version="1.0" encoding="UTF-8" standalone="no"?>
<svg
   t="1670036257069"
   class="icon"
   viewBox="0 0 885.27644 886.16254"
   version="1.1"
   p-id="6624"
   width="16 "
   height="16 "
   id="svg78"
   sodipodi:docname="pokeball_step_1.svg"
   inkscape:export-filename="basketball6.svg"
   inkscape:export-xdpi="7.6799998"
   inkscape:export-ydpi="7.6799998"
   inkscape:version="1.2.1 (9c6d41e, 2022-07-14)"
   xmlns:inkscape="http://www.inkscape.org/namespaces/inkscape"
   xmlns:sodipodi="http://sodipodi.sourceforge.net/DTD/sodipodi-0.dtd"
   xmlns="http://www.w3.org/2000/svg"
   xmlns:svg="http://www.w3.org/2000/svg">
  <defs
     id="defs82" />
  <sodipodi:namedview
     id="namedview80"
     pagecolor="#ffffff"
     bordercolor="#000000"
     borderopacity="0.25"
     inkscape:showpageshadow="2"
     inkscape:pageopacity="0.0"
     inkscape:pagecheckerboard="0"
     inkscape:deskcolor="#d1d1d1"
     showgrid="false"
     inkscape:zoom="1.5115134"
     inkscape:rotation="-45"
     inkscape:cx="65.727833"
     inkscape:cy="129.3505"
     inkscape:window-width="1512"
     inkscape:window-height="846"
     inkscape:window-x="0"
     inkscape:window-y="38"
     inkscape:window-maximized="1"
     inkscape:current-layer="svg78" />
  <path
     d="m -0.51199896,443.0833 c -7e-6,244.31523 198.76004896,443.0753 443.07926896,443.07927 244.31526,2e-5 443.08332,-198.76805 443.08331,-443.08328 C 885.65058,198.76404 686.89051,0.00400107 442.57127,2.074707e-6 198.25604,-8.925293e-6 -0.51200696,198.76805 -0.51199896,443.0833 Z"
     fill="#696065"
     p-id="6625"
     id="path68" />
  <path
     d="M 484.79782,253.9978 C 572.7671,253.9938 648.60725,201.44612 682.79957,126.11286 621.25178,79.356364 545.76287,50.053224 463.74042,45.730764 V 253.99782 Z m -66.21345,2e-5 V 45.946304 c -80.92488,4.83729 -155.40003,33.94885 -216.23738,80.170556 34.18834,75.32926 110.03646,127.88492 198.00176,127.88492 z"
     fill="#e25532"
     p-id="6626"
     data-spm-anchor-id="a313x.7781069.0.i19"
     class="selected"
     id="path70" />
  <path
     d="M 418.58439,299.15385 H 400.34474 C 298.77356,299.14984 210.52488,241.14626 166.8735,156.54551 96.684873,224.09996 51.141663,317.05025 45.322543,420.50127 l 373.257827,0.004 z m -18.23964,287.85885 18.23563,0.004 1e-5,-121.35541 -373.257837,-0.004 c 5.81912,103.45105 51.36632,196.4053 121.554947,263.95976 43.64738,-84.59674 131.89606,-142.60036 233.46724,-142.60435 z"
     fill="#e25532"
     p-id="6627"
     data-spm-anchor-id="a313x.7781069.0.i18"
     class="selected"
     id="path72" />
  <path
     d="m 400.34075,632.16477 c -87.96531,-10e-6 -163.81341,52.55567 -197.99775,127.88894 60.83733,46.2217 135.31251,75.33326 216.23738,80.17055 v -208.0515 z m 63.39168,0.004 0.004,208.27102 C 545.75888,836.11737 621.24782,806.81422 682.79957,760.05372 648.60726,684.72046 572.75515,632.16878 484.79384,632.17276 Z"
     fill="#e25532"
     p-id="6628"
     data-spm-anchor-id="a313x.7781069.0.i16"
     class=""
     id="path74" />
  <path
     d="m 463.74042,587.0127 21.06138,0.004 c 101.57919,-0.004 189.82785,57.99962 233.46726,142.60436 70.18866,-67.55447 115.73583,-160.50872 121.55495,-263.95975 l -376.09156,-0.004 z m 21.05341,-287.86283 -21.0614,0.004 v 121.35539 l 376.07961,-0.008 C 833.99293,317.05822 788.44972,224.09998 718.26107,156.54551 674.61768,241.14626 586.37298,299.15386 484.79382,299.14987 Z"
     fill="#e25532"
     p-id="6629"
     data-spm-anchor-id="a313x.7781069.0.i15"
     class="selected"
     id="path76" />
</svg>
