<?xml version="1.0" encoding="UTF-8" standalone="no"?>
<svg
   t="1670036257069"
   class="icon"
   viewBox="0 0 884.43181 886.1626"
   version="1.1"
   p-id="6624"
   width="16 "
   height="16 "
   id="svg78"
   xmlns="http://www.w3.org/2000/svg"
   xmlns:svg="http://www.w3.org/2000/svg">
  <defs
     id="defs82" />
  <path
     d="M 442.07929,-2.925293e-6 C 197.76406,-2.925293e-6 -0.99601325,198.76006 -1.0000042,443.07929 c 0,244.31524 198.7680542,443.08329 443.0832942,443.08329 244.31523,0 443.0753,-198.76007 443.07929,-443.0793 C 885.16258,198.76804 686.39453,-2.925293e-6 442.07929,-2.925293e-6 Z"
     fill="#696065"
     p-id="6625"
     id="path68" />
  <path
     d="m 631.16478,485.30982 c 0.004,87.96929 52.55168,163.80943 127.88494,198.00175 46.75651,-61.54777 76.05965,-137.03669 80.38208,-219.05914 H 631.16478 Z m 0,-66.21344 h 208.0515 C 834.37899,338.17149 805.26742,263.69633 759.04573,202.85899 683.71646,237.04732 631.16079,312.89544 631.16079,400.86074 Z"
     fill="#e25532"
     p-id="6626"
     data-spm-anchor-id="a313x.7781069.0.i19"
     class="selected"
     id="path70" />
  <path
     d="M 586.00872,419.09638 V 400.85675 C 586.01272,299.28556 644.01633,211.03689 728.61708,167.38551 661.0626,97.196864 568.11234,51.653664 464.66131,45.834544 l -0.004,373.257836 z m -287.85886,-18.23963 -0.004,18.23563 h 121.3554 l 0.004,-373.257836 C 316.05424,51.653664 223.09998,97.200854 155.5455,167.3895 c 84.59676,43.64739 142.60037,131.89606 142.60436,233.46725 z"
     fill="#e25532"
     p-id="6627"
     data-spm-anchor-id="a313x.7781069.0.i18"
     class="selected"
     id="path72" />
  <path
     d="m 252.9978,400.85276 c 0,-87.9653 -52.55567,-163.81342 -127.88893,-197.99776 -46.2217,60.83734 -75.33326,135.3125 -80.17055,216.23738 h 208.0515 z m -0.004,63.39169 -208.27102,0.004 c 4.32244,82.02245 33.62558,157.51137 80.38608,219.06313 75.33326,-34.19232 127.88494,-110.04443 127.88095,-198.00574 z"
     fill="#e25532"
     p-id="6628"
     data-spm-anchor-id="a313x.7781069.0.i16"
     class=""
     id="path74" />
  <path
     d="m 298.14986,464.25243 -0.004,21.06138 c 0.004,101.57917 -57.99962,189.82784 -142.60436,233.46725 67.55448,70.18865 160.50873,115.73583 263.95976,121.55495 l 0.004,-376.09156 z m 287.86286,21.0534 -0.004,-21.06138 H 464.65333 l 0.008,376.07959 C 568.10435,834.50492 661.0626,788.96172 728.61708,718.77308 644.01633,675.12968 586.00872,586.885 586.01272,485.30583 Z"
     fill="#e25532"
     p-id="6629"
     data-spm-anchor-id="a313x.7781069.0.i15"
     class="selected"
     id="path76" />
</svg>
